<svg width="28" height="29" viewBox="0 0 28 29" fill="none" xmlns="http://www.w3.org/2000/svg">
<path d="M10.1705 0.5H2.13164C0.956117 0.5 -0.00012207 1.45624 -0.00012207 2.63176V10.6707C-0.00012207 11.8462 0.956117 12.8024 2.13164 12.8024H10.1705C11.3461 12.8024 12.3023 11.8462 12.3023 10.6707V2.63176C12.3021 1.45624 11.3461 0.5 10.1705 0.5Z" fill="#5F6C82"/>
<path d="M25.8679 0.5H17.829C16.6535 0.5 15.6973 1.45624 15.6973 2.63176V10.6707C15.6973 11.8462 16.6535 12.8024 17.829 12.8024H25.8679C27.0434 12.8024 27.9997 11.8462 27.9997 10.6707V2.63176C27.9997 1.45624 27.0434 0.5 25.8679 0.5Z" fill="#5F6C82"/>
<path d="M10.1705 16.1975H2.13164C0.956117 16.1975 -0.00012207 17.1537 -0.00012207 18.3292V26.3681C-0.00012207 27.5436 0.956117 28.4998 2.13164 28.4998H10.1705C11.3461 28.4998 12.3023 27.5436 12.3023 26.3681V18.3292C12.3021 17.1537 11.3461 16.1975 10.1705 16.1975Z" fill="#5F6C82"/>
<path d="M25.8679 16.1975H17.829C16.6535 16.1975 15.6973 17.1537 15.6973 18.3293V26.3682C15.6973 27.5437 16.6535 28.4999 17.829 28.4999H25.8679C27.0434 28.4998 27.9997 27.5436 27.9997 26.3681V18.3292C27.9997 17.1537 27.0434 16.1975 25.8679 16.1975Z" fill="#5F6C82"/>
</svg>
